<svg version="1.1" xmlns="http://www.w3.org/2000/svg" style="display: block;" viewBox="0 0 2048 2048" width="2048" height="2048" preserveAspectRatio="none"><title>Disce Ouroboros</title><desc>Engraved ouroboros with a branching tail.</desc>

<path transform="translate(0,0)" fill="#D5C09D" d="M 380.435 802.288 C 379.754 801.252 377.181 797.644 376.847 797.006 C 372.677 789.036 348.294 770.595 347.304 762.299 C 345.953 750.975 341.466 735.059 345.354 723.867 C 350.919 707.847 361.666 701.968 371.682 690.245 C 386.624 672.758 405.653 650.943 411.236 628.319 C 412.665 622.525 412.806 611.913 414.199 605.905 C 416.124 597.601 421.227 590.945 421.79 582.404 C 423.029 563.591 412.658 541.351 422.622 524.52 C 433.231 506.6 459.745 494.725 471.849 480.801 C 480.608 470.724 492.551 450.053 501.731 438.224 C 510.196 427.317 520.892 413.587 528.452 402.616 C 532.739 396.394 538.31 379.699 542.951 372.23 C 563.25 339.559 584.791 344.833 612.897 333.13 C 626.674 327.393 628.719 316.578 654.964 310.261 C 678.091 304.695 703.451 307.596 722.76 296.687 C 730.711 292.195 747.961 279.735 755.421 273.134 C 759.045 269.928 766.829 257.195 770.255 254.064 C 781.403 243.877 796.17 227.773 809.046 220.625 C 820.03 214.527 828.409 225.837 838.847 223.997 C 851.524 221.946 862.764 212.198 874.607 208.76 C 883.708 206.118 912.979 217.46 915.102 227.44 C 911.331 245.342 872.176 241.136 871.809 256.312 C 873.231 258.678 875.45 261.226 878.15 262.082 C 890.002 265.84 899.84 252.616 910.732 248.991 C 917.486 246.743 930.82 247.209 935.903 245.193 C 945.765 241.282 957.483 234.751 967.154 230.289 C 991.223 219.184 1010.59 238.017 1029.67 238.663 C 1047.48 239.267 1063.17 223.998 1087.58 235.436 C 1104.12 243.187 1119.42 256.92 1135.31 267.53 C 1157.58 282.396 1180.97 287.246 1201.24 300.967 C 1218.82 312.863 1237.36 336.692 1250.84 353.16 C 1256.72 360.434 1268.18 366.095 1274.09 372.566 C 1285.36 384.914 1295.69 398.619 1307.2 410.908 C 1312.77 416.854 1316.15 428.579 1321.94 434.902 C 1331.4 445.248 1342.57 453.775 1350.39 465.433 C 1357.17 475.598 1357.93 492.379 1363.78 501.567 C 1372.71 515.599 1388.19 525.498 1396.26 540.949 C 1403.29 554.415 1401.45 569.736 1405.51 582.388 C 1409.28 594.116 1421.52 608.011 1426.27 621.212 C 1430.64 630.925 1430.31 642.418 1432.59 652.582 C 1434.98 663.277 1444.29 672.375 1438.68 683.8 C 1436.38 688.483 1432.62 692.852 1427.4 694.499 C 1412.57 699.175 1407.16 681.136 1397.51 674.163 C 1391.81 669.986 1382.02 666.97 1377.08 662.72 C 1373.33 659.494 1369.65 650.358 1364.62 646.966 C 1360.33 644.07 1353 640.918 1348.37 639.024 C 1322.52 628.458 1333.9 606.399 1324.07 587.218 C 1317.65 574.68 1302.67 564.794 1295.75 552.603 C 1291.58 545.267 1290.24 532.587 1286.82 524.098 C 1281.67 511.34 1267.77 501.579 1261.07 490.169 C 1254.73 479.392 1255.84 471.045 1245.58 460.978 C 1234.77 450.371 1222.06 444.845 1210.95 435.473 C 1201.52 427.515 1196.52 409.356 1186.55 401.069 C 1174.52 391.063 1156.98 385.327 1144.51 376.362 C 1133.48 368.427 1129.01 357.294 1114.61 351.473 C 1095.7 343.827 1075.27 339.955 1056.68 332.425 C 1048.77 329.223 1035.14 317.07 1026.74 314.01 C 1007.39 306.963 985.81 312.967 965.099 308.276 C 950.077 304.874 936.735 296.646 923.086 293.47 C 908.874 290.162 887.012 294.13 873.197 294.095 C 854.035 294.046 833.286 290.18 813.916 294.974 C 797.802 298.962 788.486 310.022 770.817 313.437 C 748.531 317.744 727.16 314.336 706.241 324.506 C 688.645 333.061 673.963 348.675 657.116 358.691 C 651.546 362.002 642.8 364.51 636.469 367.003 C 630.213 369.531 624.492 373.218 619.606 377.871 C 610.658 386.416 605.386 397.613 597.843 407.607 C 593.597 413.233 583.445 421.778 581.268 426.839 L 582.484 427.766 C 596.868 424.978 609.684 407.93 619.043 397.616 C 637.251 377.548 652.497 377.6 675.529 368.449 C 683.685 365.209 697.74 350.103 706.171 344.056 C 727.972 328.417 744.057 338.105 767.499 333.999 C 780.708 330.792 801.783 316.411 819.006 312.311 C 840.31 307.241 848.567 315.196 866.776 314.06 C 882.624 313.07 893.634 303.643 912.895 307.896 C 930.283 311.736 946.331 322.999 962.431 326.911 C 974.604 329.869 991.708 321.621 1007.16 327.426 C 1022.32 333.118 1030.25 342.869 1044.25 350.04 C 1053.22 354.636 1064.66 354.462 1073.77 356.673 C 1094.28 361.653 1110.42 378.353 1125.87 391.672 C 1137.36 401.566 1155.94 402.418 1166.14 410.512 C 1178.44 420.27 1190.6 439.947 1201.25 451.607 C 1210.46 461.696 1224.08 468.887 1232.19 481.001 C 1238.94 491.09 1240.07 503.429 1247.5 512.46 C 1253.9 520.225 1265.36 524.819 1270.63 533.882 C 1273.59 538.96 1276.74 547.589 1275.43 553.399 C 1267.96 559.132 1247.7 530.022 1233.23 531.56 C 1220.8 532.879 1211.96 517.736 1201.32 514.362 C 1194.12 511.241 1172.67 513.362 1166.83 509.053 C 1145.49 493.286 1136.45 490.295 1109.82 488.869 C 1103.04 488.506 1088.62 479.651 1079.52 480.201 C 1069.68 480.797 1061.17 483.8 1051.47 484 C 1036.11 482.748 1020.09 476.25 1004.52 475.518 C 996.405 475.136 986.198 482.216 979.005 482.707 C 963.898 483.739 951.42 478.865 935.878 482.704 C 922.01 486.13 913.696 496.959 901.114 501.83 C 888.948 506.541 870.723 506.985 859.72 515.229 C 845.451 525.92 833.976 542.448 819.263 553.386 C 811.569 559.106 801.342 560.616 794.478 567.206 C 787.277 574.118 784.061 584.859 779.479 593.806 C 773.266 605.937 764.237 617.177 753.91 626.064 C 746.961 632.044 734.603 633.065 728.229 636.909 C 714.4 645.251 700.942 659.051 685.26 664.556 C 672.818 668.923 659.416 668.512 646.944 674.717 C 633.329 681.491 629.767 693.375 618.261 701.887 C 614.164 704.917 605.194 708.187 600.187 710.254 C 595.002 712.394 580.118 722.565 576.98 726.26 C 570.228 734.21 565.535 752.203 560.052 761.739 C 555.557 769.556 548.87 776.39 543.82 783.762 C 540.362 789.482 537.483 795.837 535.464 802.396 C 529.752 820.955 507.04 824.956 492.315 834.561 C 487.367 837.788 474.4 836.774 469.613 833.818 C 462.507 829.431 443.27 825.064 440.179 817.876 C 442.876 812.062 460.408 808.539 468.153 804.671 C 479.987 798.76 499.083 779.259 504.085 767.804 C 507.208 760.653 508.612 746.681 512.825 738.525 C 521.066 722.568 527.408 709.81 533.654 693.05 C 513.126 695.478 497.151 732.801 488.187 748.481 C 485.167 753.764 480.155 757.818 476.321 762.493 C 464.344 777.098 453.064 788.079 438.259 799.761 C 428.508 799.814 423.59 799.364 414.298 802.386 C 398.533 800.885 399.233 796.762 380.435 802.288 z"/>
<path transform="translate(0,0)" fill="#E3AF50" d="M 414.298 802.386 C 418.791 775.608 450.315 757.57 465.631 739.118 C 470.415 733.972 475.986 719.379 480.215 715.036 C 488.681 706.342 499.337 681.281 506.41 674.564 C 529.467 652.67 567.451 639.181 584.264 611.99 C 600.006 586.532 592.847 551.307 601.769 523.752 C 603.197 519.394 615.907 488.567 618.183 484.931 C 634.727 458.497 659.368 439.842 687.307 427.093 C 713.365 415.416 735.155 418.306 761.508 422.018 C 791.39 426.227 795.361 439.919 819.709 448.826 C 839.77 442.571 862.654 434.63 882.943 429.705 C 893.611 427.116 913.209 431.51 925.299 430.549 C 935.878 429.708 947.324 423.052 954.97 421.369 C 971.749 417.676 1002.05 434.473 1018.95 439.154 C 1028.02 441.665 1042.11 440.559 1047.45 441.918 C 1059.86 445.077 1097.52 457.306 1106.68 462.625 C 1108.64 465.892 1108.56 464.341 1107.81 467.34 C 1096.16 471.433 1090.22 465.832 1081.76 466.823 C 1060.8 469.276 1046.77 464.394 1026.83 460.85 C 1006.93 457.313 984.798 464.567 965.17 466.912 C 952.908 468.378 939.522 468.435 927.275 470.562 C 918.419 472.361 903.215 481.585 893.683 485.091 C 882.426 489.547 867.458 491.858 857.163 498.101 C 841.301 507.721 820.525 545.683 800.303 543.487 C 794.875 538.701 799.144 524.146 796.8 516.108 C 781.625 464.077 721.287 463.964 682.613 489.03 C 661.264 503.076 638.399 544.042 634.749 568.862 C 630.412 598.346 628.49 626.082 605.122 649.136 C 592.81 661.282 577.012 674.244 561.464 682.524 C 553.521 686.754 540.763 687.735 533.654 693.05 C 513.126 695.478 497.151 732.801 488.187 748.481 C 485.167 753.764 480.155 757.818 476.321 762.493 C 464.344 777.098 453.064 788.079 438.259 799.761 C 428.508 799.814 423.59 799.364 414.298 802.386 z"/>
<path transform="translate(0,0)" fill="#1E4B3A" d="M 530.367 508.686 C 533.039 508.843 532.008 508.645 534.501 510.031 C 538.176 515.934 533.009 531.129 531.934 538.009 C 531.047 543.69 528.684 570.584 526.06 573.092 C 510.785 587.696 494.723 601.451 477.558 613.764 C 475.684 613.206 475.677 613.029 473.95 612.027 C 467.965 602.133 479.051 567.391 478.575 554.929 C 478.032 540.726 493.593 539.727 501.95 533.71 C 511.859 526.576 519.916 516.499 530.367 508.686 z"/>
<path transform="translate(0,0)" fill="#1E4B3A" d="M 386.376 733.935 C 408.273 735.721 400.358 747.954 389.642 759.316 C 384.304 765.172 382.416 759.832 381.288 754.476 L 379.588 746.448 C 382 741.13 382.656 738.303 386.376 733.935 z"/>
<path transform="translate(0,0)" fill="#D5C09D" d="M 1154.13 770.316 C 1157.19 770.501 1158.35 770.287 1160.88 772.054 C 1164.69 778.43 1187.77 806.074 1188.07 807.296 C 1196.95 840.606 1209.33 869.823 1213.51 904.755 C 1216.22 927.505 1175.35 1000.14 1196.24 1009.47 C 1204.34 1009.71 1209.65 1001.5 1216.61 997.81 C 1228.12 991.705 1245.16 986.409 1252.42 974.883 C 1256.39 967.584 1257.79 957.12 1261.1 949.806 C 1268.59 933.282 1276.38 920.019 1276.28 901.203 C 1276.24 894.05 1282.95 880.682 1288.82 876.021 L 1291.99 877.568 C 1294.72 888.614 1289.09 900.657 1288.44 911.754 C 1288.02 918.837 1291.63 926.888 1289.77 933.875 C 1287.67 941.742 1283.19 949.324 1280.28 956.938 C 1277.26 963.328 1269.85 991.576 1265.93 995.439 C 1244.08 1016.94 1199.68 1029.84 1174.58 1047.26 C 1158.17 1058.65 1148.49 1081.38 1134.78 1095.22 C 1130.84 1099.67 1123.79 1103.2 1119.89 1107.45 C 1106.22 1122.33 1085.79 1132.54 1073 1147.4 C 1068.53 1152.59 1065.72 1167.93 1062.29 1174.48 C 1058.76 1181.22 1055.2 1186.72 1051.05 1193.03 C 1044.42 1203.71 1036.96 1220.55 1035.47 1232.99 C 1034.43 1241.66 1039.99 1254.15 1036.95 1263.84 C 1036.56 1266.75 1029.32 1276.66 1029.32 1278.65 C 1029.39 1300.56 1016.51 1312.99 1011 1332.01 C 1007.9 1342.75 1012.16 1358.36 1008.36 1369.56 C 1003.63 1383.52 995.386 1394.91 992.082 1409.18 C 988.931 1424.6 993.807 1441.3 990.656 1456.79 C 988.772 1466.05 979.987 1473.53 979.259 1483.5 C 978.094 1499.47 986.775 1515.04 988.685 1530.16 C 989.987 1540.48 986.672 1557.04 989.15 1567.68 C 992.995 1584.19 1013.08 1595.13 1022.23 1609.91 C 1029.47 1621.6 1031.34 1644.05 1040.28 1652.27 C 1054.3 1665.15 1070.53 1665.16 1088.18 1678.86 C 1101.79 1689.4 1108.73 1706.94 1118.63 1711.18 C 1135.51 1718.4 1151.88 1710.73 1171.98 1721.59 C 1191.95 1732.39 1197.6 1746.32 1218.52 1754.63 C 1237.48 1762.16 1261.93 1752.15 1278.92 1761.14 C 1280.6 1762.51 1281.41 1764.76 1281.01 1766.76 C 1279.57 1773.89 1266.99 1777.28 1261.46 1778.92 C 1252.63 1781.54 1243.68 1785.68 1235.02 1787.43 C 1222.84 1789.89 1211.53 1789.82 1199.78 1794.72 C 1189.65 1798.94 1183.62 1806.78 1174.28 1812.14 C 1147.65 1824.22 1120.81 1806.24 1096.2 1800.5 C 1085.47 1797.99 1069.29 1802.94 1056.83 1797.31 C 1045.57 1792.22 1037.28 1785 1027.13 1778.5 C 1016.02 1771.4 1008.22 1767.87 995.685 1764.51 C 978.747 1759.98 970.263 1741.39 957.288 1730.91 C 948.805 1724.06 938.136 1720.18 930.29 1712.9 C 925.292 1708.26 920.838 1698.93 917.596 1692.72 C 913.78 1684.88 909.522 1677.36 903.933 1670.64 C 897.195 1662.54 889.075 1655.11 883.766 1645.94 C 878.065 1636.1 878.964 1623.71 875.474 1612.99 C 871.122 1599.62 861.304 1587.24 859.106 1573.33 C 858.52 1569.61 858.536 1565.76 858.924 1562.02 C 860.111 1550.59 863.338 1538.71 861.197 1527.24 C 859.47 1517.99 855.235 1509.35 854.719 1499.83 C 853.931 1485.3 864.214 1474.81 868.603 1461.75 C 873.095 1448.37 867.901 1434.65 871.423 1421.34 C 875.17 1407.19 888.772 1398.35 895.005 1385.45 C 900.879 1373.3 899.94 1358.62 907.041 1347.03 C 912.086 1338.8 920.915 1333.08 927.061 1325.61 C 940.235 1309.59 935.12 1296.44 942.683 1280.54 C 946.919 1271.64 954.823 1264.85 958.164 1255.36 C 960.898 1247.59 959.013 1238.76 961.332 1230.85 C 964.838 1218.89 974.168 1210.42 972.604 1196.9 C 971.709 1189.17 950.894 1126.95 946.723 1120.63 C 940.561 1111.3 930.342 1106.18 924.746 1095.94 C 918.087 1083.74 916.344 1069.89 906.459 1059.43 C 899.042 1051.58 890.238 1042.73 881.474 1036.44 C 874.384 1031.35 866.46 1027.43 859.492 1022.17 C 848.686 1014 838.269 1004.76 827.66 996.264 C 826.957 991.963 826.733 986.852 825.935 982.061 C 824.415 972.942 820.34 959.502 820.521 950.614 C 820.594 947.058 825.395 936.567 825.752 930.978 C 826.189 924.156 824.763 911.653 828.166 906.345 L 830.13 906.379 C 847.257 921.714 834.088 942.508 838.24 964.306 C 839.315 981.256 854.034 985.047 864.47 995.109 C 871.085 1001.49 877.597 1017.11 890.312 1015.47 C 902.046 1009.48 902.097 988.158 900.137 976.728 C 899.224 971.405 894.824 947.438 894.996 944.189 C 895.841 928.234 905.697 909.945 910.498 894.632 C 912.896 886.983 915.823 868.188 919.016 862.278 C 926.753 848.585 938.049 837.382 947.643 825.052 C 952.454 818.87 952.625 807.577 961.402 806.259 C 977.764 813.131 940.514 859.227 938.735 867.803 C 934.286 889.251 927.562 910.604 921.644 931.314 C 915.36 955.598 928.272 983.434 930.749 1004.37 C 934.79 1038.52 929.524 1032.61 949.977 1059.37 C 967.08 1081.74 964.977 1091.54 995.989 1101.96 C 999.939 1109.08 1005.26 1119.54 1014.13 1122.33 C 1018.91 1123.83 1025.11 1117.77 1029.45 1114.39 C 1044.25 1102.84 1060.07 1106.24 1074.72 1096.09 C 1081.23 1091.59 1092.09 1079.48 1097.16 1075.97 C 1139.66 1049.69 1142.64 1025.66 1159.18 983.645 C 1169.7 956.92 1177.13 962.604 1181.07 925.015 C 1184.69 890.546 1189.36 872.055 1174.87 837.078 C 1172.99 832.521 1173.41 821.946 1171.82 816.884 C 1167.08 799.785 1150.82 789.793 1154.13 770.316 z"/>
<path transform="translate(0,0)" fill="#D5C09D" d="M 1748.11 714.462 C 1760.75 715.883 1761.07 728.21 1765.22 737.207 C 1775.71 759.963 1802.27 774.987 1815.05 794.443 C 1814.26 805.649 1811.62 817.022 1810.92 828.311 C 1810.49 835.155 1815.26 844.148 1815.28 850.615 C 1815.33 860.945 1813.8 872.076 1813.63 882.462 C 1813.5 890.075 1818.78 900.38 1816.46 907.916 C 1814.63 913.855 1808.67 915.881 1803.53 918.178 C 1786.5 907.657 1782.68 873.642 1767.78 875.755 C 1754.13 887.524 1773.68 906.649 1777.33 918.387 C 1780.14 925.991 1779.79 934.964 1781.93 942.639 C 1784.89 953.241 1792.82 965.713 1798.51 975.283 C 1798.62 982.908 1797.41 991.355 1797.11 999.144 C 1796.64 1011.51 1796.93 1023.92 1797.25 1036.25 C 1797.51 1046.19 1803.22 1060.9 1801.31 1069.94 C 1798.27 1084.31 1786.38 1097.9 1781.35 1112.13 C 1777.01 1124.4 1779.18 1134.67 1776.66 1146.37 C 1775.61 1151.26 1767.51 1164.7 1764.85 1169.59 C 1758.26 1181.66 1749.87 1195.67 1740 1205.36 C 1729.56 1215.62 1718.27 1224.51 1708.29 1235.58 C 1700.88 1243.8 1692.87 1258.05 1684.65 1264.43 C 1675.92 1271.21 1661.94 1270.95 1652.15 1278.62 C 1641.36 1287.09 1627.74 1302.01 1615.6 1307.58 C 1594.3 1317.37 1579.1 1316.83 1556.56 1328.11 C 1525.23 1344.24 1510.35 1338.3 1477.73 1346.48 C 1469.49 1348.54 1443.54 1364.62 1434.4 1361.85 C 1429.28 1349.61 1452.38 1333.58 1457.35 1323.98 C 1462.68 1313.67 1460.29 1300.1 1464.98 1289.53 C 1470.38 1277.34 1481.76 1268.85 1487.78 1257.02 C 1493.06 1245.84 1493.51 1227.33 1497.51 1215.08 C 1501.67 1202.36 1510.82 1196.16 1517.09 1184.68 C 1521.95 1174.77 1523.18 1162.68 1528.38 1152.95 C 1532.99 1144.32 1541.84 1137.98 1548.18 1130.55 C 1552.28 1125.74 1556.23 1120.7 1559.7 1115.34 C 1570.39 1098.84 1575.1 1078.08 1587.5 1062.64 C 1596.82 1051.04 1609.88 1041.93 1618.42 1029.56 C 1625.62 1018.8 1628.57 1006.22 1635 994.487 C 1643.75 978.509 1655.4 965.156 1664.56 949.875 C 1671.59 938.133 1673.35 920.505 1680.06 907.509 C 1684.64 898.637 1687.77 890.911 1693.29 882.003 C 1696.15 877.401 1704.95 865.694 1706.52 861.539 C 1714.65 840.065 1722.74 816.448 1728.92 794.33 C 1730.99 786.896 1730.9 773.045 1732.4 767.122 C 1735.84 753.506 1740.66 724.59 1748.11 714.462 z"/>
<path transform="translate(0,0)" fill="#D5C09D" d="M 1215.58 215.13 C 1236.62 213.726 1237.14 223.446 1255.03 230.084 C 1261.78 232.59 1273.15 228.386 1280.6 231.787 C 1290.68 236.852 1302.25 237.289 1312.5 241.026 C 1330.78 247.691 1318.47 259.798 1310.11 267.1 C 1306.15 267.037 1300.62 266.592 1296.98 268.129 C 1292.31 270.095 1288.66 275.272 1291.97 280.24 C 1302.06 295.369 1318.71 284.973 1332.61 290.551 C 1341 293.918 1347.57 300.811 1355.36 305.335 C 1364.86 310.931 1374.89 312.076 1385.2 314.184 C 1407.53 318.753 1416.13 330.488 1432.43 344.334 C 1439.73 350.53 1458.74 355.634 1466.62 363.074 C 1474.14 370.18 1475.48 381.583 1481.47 389.431 C 1494.53 406.531 1507.99 415.795 1518.69 435.468 C 1527.84 452.262 1530.88 466.754 1537.87 484.032 C 1539.49 488.009 1548.44 502.272 1551.34 506.357 C 1567.31 528.884 1561.41 554.373 1566.36 580.232 C 1569.75 597.889 1580.77 615.171 1584.57 632.016 C 1587.37 644.416 1579.3 662.76 1579.15 676.427 C 1578.98 691.121 1587.28 703.539 1586.6 717.523 C 1585.82 733.612 1578.1 751.312 1574.62 767.125 C 1571.32 782.08 1577.63 796.425 1573.87 811.497 C 1571.63 820.471 1566.43 827.897 1563.02 836.515 C 1561.38 840.652 1561.2 851.357 1559.83 854.233 C 1552.35 869.969 1550.01 873.715 1546.23 890.714 C 1544.44 894.642 1542.33 899.023 1537.41 898.043 C 1532.88 893.737 1534.47 877.003 1533.08 870.315 C 1532.44 867.244 1528.75 854.041 1528.85 852.975 C 1531.28 826.04 1518.63 821.404 1504.75 802.876 C 1499.57 795.792 1499.9 774.748 1495.47 764.167 C 1489.22 749.241 1478.93 737.165 1472.29 722.58 C 1466.13 707.7 1469.8 684.647 1467.21 669.984 C 1466.19 664.241 1454.91 648.908 1451.15 639.948 C 1444.7 624.559 1444.18 612.395 1439.18 597.562 C 1436.47 589.523 1427.73 578.429 1424.06 568.625 C 1420 557.797 1421.01 542.017 1417.76 533.866 C 1411.66 518.6 1389.36 501.3 1380.74 486.698 C 1374.52 475.786 1372.11 462.417 1364.91 452.012 C 1358.15 440.59 1337.72 425.348 1332.57 414.164 C 1321.63 390.406 1320.7 377.177 1294.85 364.246 C 1288.59 361.114 1276.84 350.783 1270.79 345.638 C 1263.37 339.332 1260.41 325.912 1253.03 319.073 C 1232.74 299.628 1209.86 283.244 1184.99 270.199 C 1177 266.044 1161.32 262.961 1152.81 258.586 C 1149.23 256.743 1146.08 254.932 1144.74 251.196 C 1149.18 245.145 1205.52 218.389 1215.58 215.13 z"/>
<path transform="translate(0,0)" fill="#D5C09D" d="M 1581.13 413.081 C 1582 413.073 1585.85 413.088 1586.49 413.301 C 1597.5 416.978 1605.86 433.875 1616.25 440.765 C 1625.83 447.121 1637.4 448.648 1644.92 454.853 C 1653.57 461.995 1657.09 475.066 1665.46 484.07 C 1667.6 488.634 1683.62 494.334 1684.7 498.04 C 1690.61 518.193 1665.05 513.634 1654.53 516.048 C 1650.13 517.059 1649.23 520.368 1648.88 521.036 C 1648.97 530.723 1658.93 536.039 1664.07 543.937 C 1671.05 554.658 1678.08 564.747 1685.67 575.164 C 1691.59 583.303 1699.03 591.454 1704.68 599.823 C 1710.74 612.604 1702.77 633.869 1706.99 649.457 C 1710.49 662.374 1721.71 679.52 1722.69 691.198 C 1724.13 708.348 1715.26 732.879 1712.12 749.93 C 1709.08 766.435 1712.26 788.543 1708.38 804.553 C 1706.34 812.994 1698.56 828.211 1695.18 837.274 C 1691.38 847.483 1687.49 866.611 1682.38 874.965 C 1675.53 886.151 1667.03 894.929 1660.65 907.548 C 1653.34 921.986 1648.15 938.093 1640.65 952.022 C 1637.22 958.39 1628.19 967.702 1624.21 975.176 C 1618.28 986.32 1615.35 998.018 1608.54 1008.53 C 1596.24 1027.51 1575.35 1039.04 1563.29 1057.42 C 1561.38 1060.32 1558.34 1069.83 1557.11 1073.49 C 1553.76 1079.66 1549.21 1086.72 1545.34 1092.64 C 1540.36 1100.28 1532.62 1116.5 1521.76 1112.32 C 1516.22 1102.89 1508.45 1091.21 1503.31 1082.38 C 1497.68 1072.71 1508.01 1052.17 1504.66 1040.67 C 1501.47 1029.71 1492.17 1019.77 1497.32 1007.98 C 1503.52 997.152 1513.25 988.522 1520.39 978.474 C 1526.75 969.523 1531.56 960.012 1537.79 951.032 C 1541.76 945.993 1552.1 940.214 1554.68 934.531 C 1565.62 910.489 1564.97 881.951 1574.32 856.864 C 1579.38 843.294 1588.44 836.364 1593.71 823.486 C 1595.79 816.153 1596.34 806.722 1596.16 799.054 C 1595.51 771.534 1604.94 746.213 1609.41 719.841 C 1610.74 711.971 1600.8 696.033 1600.13 686.3 C 1598.94 668.975 1605.53 653.672 1605.13 636.566 C 1604.85 623.746 1596.08 615.945 1593.65 606.885 C 1588.5 587.72 1593.45 560.56 1589.36 541.34 C 1587.28 531.542 1573.88 517.215 1569.95 508.136 C 1563.16 492.455 1561.76 473.519 1555.97 457.154 C 1553.19 446.817 1544.24 440.409 1539.9 431.292 C 1531.6 413.816 1559.5 418.565 1568.2 416.809 C 1572.7 415.902 1577.02 414.422 1581.13 413.081 z"/>
<path transform="translate(0,0)" fill="#D5C09D" d="M 1678.11 1422.99 C 1679.64 1423.14 1680.96 1423.6 1682.48 1424 C 1683.96 1425.47 1684.54 1425.45 1684.78 1427.23 C 1685.73 1434.26 1675.46 1444.05 1671.15 1449.85 C 1659.26 1465.85 1664.71 1484.2 1655.69 1500.07 C 1650.03 1510.02 1636.74 1519.31 1632.25 1530.43 C 1627.39 1542.45 1625.38 1558.58 1618.27 1569.63 C 1609.89 1582.65 1585.68 1587.81 1573.84 1597.68 C 1560.76 1608.58 1560.67 1620.89 1544.87 1630.42 C 1529.37 1639.77 1514.97 1638.9 1500.2 1644.19 C 1490.93 1647.5 1475.38 1661.64 1462.26 1663.39 C 1442.95 1665.96 1422.93 1658 1403.47 1656.92 C 1394.35 1656.42 1385.39 1658.8 1376.92 1659.28 C 1361.31 1660.16 1338.09 1662.28 1323.26 1660.12 C 1309.21 1658.08 1294.53 1639.63 1280.3 1634.38 C 1271.87 1631.27 1261.9 1629.28 1253.24 1627.72 C 1222.42 1622.18 1214.31 1620.62 1188.65 1604.43 C 1178.24 1596.37 1172.84 1591.24 1160.94 1585.05 C 1152.3 1580.55 1125.89 1572.62 1120.27 1567.69 C 1124.15 1560.45 1154.83 1564.76 1166.29 1560.06 C 1180.26 1554.32 1185.39 1546.44 1197.57 1541.41 C 1215.98 1533.79 1231.21 1536.07 1251.44 1528.08 C 1265.2 1522.64 1283.05 1505.16 1293.04 1504.66 C 1312.68 1503.67 1338.09 1501.02 1357.78 1501.29 C 1369.48 1501.45 1379.81 1504.47 1392.76 1503.26 C 1416.89 1500.98 1437.55 1491.81 1461.65 1490.38 C 1478.55 1489.38 1503.44 1494.1 1519.12 1489.23 C 1533.21 1484.85 1545.93 1478.49 1561.14 1474.39 C 1574.89 1470.69 1588.04 1470.65 1600.54 1466.49 C 1609.22 1463.6 1621.6 1454.42 1630.28 1450.29 C 1634.48 1448.3 1643.76 1446.27 1646.71 1444.67 C 1664.25 1435.14 1657 1429.75 1678.11 1422.99 z"/>
<path transform="translate(0,0)" fill="#D5C09D" d="M 1781.24 1190.71 C 1784.23 1191.05 1785.25 1190.94 1787.85 1192.38 C 1790.87 1194.05 1790.54 1201.39 1789.87 1204.17 C 1785.21 1223.54 1793.63 1236.12 1798.25 1254.96 C 1804.23 1279.31 1789.58 1278.21 1783.37 1298.67 C 1781.09 1306.18 1784.15 1320.02 1780.02 1329.03 C 1775.62 1338.81 1766.33 1343.9 1761.58 1353.67 C 1758.88 1359.21 1758.15 1381.31 1748.42 1380.61 C 1739.4 1379.96 1737.59 1363.43 1729.84 1357.11 C 1711.95 1352.76 1702.56 1390.09 1690.2 1397.48 C 1673.73 1407.33 1655.48 1413.75 1638.61 1422.82 C 1628.44 1428.3 1620.8 1438.05 1610.12 1442.73 C 1598.82 1447.78 1582.88 1443.26 1572.01 1447.32 C 1553.11 1454.39 1535.32 1468.59 1514.81 1471.93 C 1495.23 1475.13 1472.19 1466.3 1452.53 1470.17 C 1435.25 1473.57 1416.49 1484.32 1398.86 1486.63 C 1392.41 1487.01 1386.07 1485.46 1379.69 1484.72 C 1369.78 1483.57 1359.78 1483.55 1349.83 1482.88 C 1343 1482.42 1336.62 1484.12 1330.04 1485.82 C 1316.08 1489.1 1300.45 1489.47 1290.06 1476.49 C 1288.58 1474.65 1288.23 1470.82 1288.9 1468.43 C 1291.36 1459.71 1304.5 1456.78 1309.89 1449.86 C 1317.63 1441.08 1319.58 1432.76 1325.98 1423.92 C 1329.54 1419 1340.16 1413.16 1344.52 1407.92 C 1351.19 1399.9 1354.95 1386.41 1363.47 1380.71 C 1370.17 1376.22 1393.79 1383 1401.9 1385.19 C 1430.86 1393.01 1437.24 1375.67 1464.07 1369.08 C 1481.87 1364.71 1498.03 1368.8 1515.72 1365.53 C 1525.38 1363.75 1535.18 1353.39 1543.86 1350.09 C 1558.1 1344.67 1572.25 1347 1587.31 1341.72 C 1599.79 1337.34 1606.21 1332.88 1617.32 1325.96 C 1624.37 1321.56 1633.21 1317.58 1640.16 1313.26 C 1652.91 1305.33 1660.65 1298.5 1675.52 1294.35 C 1681 1292.82 1687.78 1289.26 1692.3 1285.58 C 1695.18 1283.21 1697.89 1280.64 1700.4 1277.88 C 1710.57 1266.81 1716.79 1253.57 1727.6 1243.85 C 1737.06 1235.35 1752.52 1228.39 1761.29 1219.22 C 1769.84 1210.29 1769.92 1197.89 1781.24 1190.71 z"/>
<path transform="translate(0,0)" fill="#D5C09D" d="M 1012.11 1439.39 C 1014.47 1439.98 1014.23 1439.97 1016.45 1441 C 1021.56 1447.37 1017.9 1456.43 1018.89 1462.42 C 1019.85 1468.24 1025.11 1479.27 1027.02 1485.83 C 1028.54 1491.03 1033.1 1507.33 1034.94 1510.98 C 1041.18 1523.31 1061.75 1524.79 1069.38 1537.55 C 1076.58 1549.59 1079.59 1567.97 1091.26 1576.53 C 1107.37 1588.35 1131.09 1590.43 1149.54 1599.41 C 1167.69 1608.24 1180.04 1623.2 1196.96 1632.15 C 1212.87 1640.56 1234.65 1638.57 1251.85 1644.51 C 1263.33 1648.53 1279.91 1656.63 1289.41 1663.63 C 1309.09 1678.13 1317.23 1678.92 1340.7 1677.68 C 1346.67 1677.36 1361.8 1685.78 1370.68 1684.49 C 1382.12 1682.83 1393.41 1679.07 1404.94 1680.24 C 1415.84 1679.82 1425.63 1690 1435.35 1690.91 C 1443.47 1691.67 1451.09 1684.11 1459.06 1691.36 C 1460.36 1699.7 1438.3 1716.62 1433.19 1725.6 C 1420.55 1747.83 1421 1765.34 1394.27 1776.27 C 1383.33 1778.75 1371.78 1781.16 1363.43 1788.74 C 1352.67 1798.66 1343.01 1800.15 1329.25 1802.95 C 1324.95 1803.82 1295.69 1824.25 1293.18 1814.24 C 1288.18 1794.33 1308.45 1775.04 1314.07 1757.24 C 1311.99 1751.01 1305.31 1746.56 1300.13 1742.38 C 1283.26 1743.45 1271.28 1741.63 1254.57 1739.89 C 1248.88 1739.3 1231.7 1740.54 1226.89 1738.64 C 1214.02 1733.56 1202.13 1719.48 1189.62 1712.75 C 1170.83 1702.63 1150.2 1700.69 1130.71 1692.39 C 1126.74 1690.7 1125.12 1689.85 1121.39 1687.99 C 1112.88 1683.75 1102.81 1670.67 1095.72 1666.25 C 1084.55 1659.28 1073.66 1655.9 1062.5 1647.49 C 1046.53 1635.47 1048.86 1622.81 1040.83 1609.56 C 1031.75 1597.73 1019.94 1590.22 1011.81 1577.23 C 1004.55 1567.61 1007.18 1555.44 1006.12 1544.22 C 1005.19 1534.3 1002.3 1524.3 1002.5 1514.26 C 1002.72 1503.6 1002.04 1493.72 1000.63 1483.21 C 1002.01 1480.62 1004.91 1475.25 1005.53 1472.59 C 1008.38 1460.39 1005.22 1450.33 1012.11 1439.39 z"/>
<path transform="translate(0,0)" fill="#D5C09D" d="M 507.038 1358.89 C 510.662 1358.41 517.105 1359.78 521.309 1359.91 C 526.318 1360.06 530.114 1359.74 535.098 1359.3 C 547.121 1365.49 548.25 1373.53 558.682 1380.99 C 566.839 1386.82 587.982 1389.2 592.586 1399.46 C 595.575 1406.13 595.488 1417.37 596.98 1424.76 C 598.351 1431.55 600.781 1438.34 603.256 1444.88 C 606.494 1451.12 610.193 1472.49 612.859 1476.45 C 622.344 1490.51 636.059 1498.19 644.421 1514.86 C 651.388 1528.75 649.209 1539.3 656.585 1552.21 C 657.941 1554.58 664.199 1560.44 666.212 1562.33 C 678.119 1572.37 682.532 1581.86 684.648 1597.16 C 686.041 1607.03 696.2 1618.39 703.59 1624.86 C 727.333 1645.64 736.472 1669.98 751.292 1696.59 C 759.057 1710.53 777.644 1721.7 789.129 1732.51 C 796.599 1739.54 802.256 1750.1 808.389 1758.38 C 818.907 1773.38 831.192 1779.15 846.175 1788.58 C 851.407 1791.87 870.886 1811.71 872.055 1816.87 C 871.383 1818.34 870.635 1820.29 868.534 1820.15 C 846.699 1818.65 835.174 1821.36 815.084 1829.21 C 790.801 1835.59 785.81 1817.84 762.893 1814.14 C 757.45 1813.26 751.979 1813.88 746.498 1814.33 C 738.415 1809.43 728.626 1801.77 719.857 1798.56 C 711.852 1795.73 700.432 1796.97 694.202 1790.65 C 689.549 1785.93 691.832 1780.7 696.159 1776.75 C 706.914 1766.91 719.664 1771.01 732.492 1771.86 C 736.434 1772.13 738.679 1771.65 741.629 1768.88 C 742.307 1766.99 742.881 1766.51 742.458 1764.76 C 741.02 1758.81 725.83 1751.26 720.036 1747.75 C 704.316 1738.22 687.005 1728.45 673.735 1715.53 C 667.196 1709.17 660.643 1697.22 653.804 1690.5 C 651.047 1687.79 643.539 1683.65 641.152 1681.46 C 636.228 1676.95 625.443 1666.65 622.247 1661.63 C 615.826 1651.53 615.903 1638.09 609.482 1626.69 C 599.905 1609.68 583.229 1593.83 575.647 1576.18 C 570.446 1564.07 572.292 1544.66 566.215 1531.95 C 559.579 1518.09 547.282 1508.25 540.283 1494.67 C 534.374 1483.21 536.657 1467.71 533.364 1456.19 C 528.811 1440.27 515.525 1424.06 510.753 1408.03 C 509.422 1400.41 509.212 1392.39 508.217 1384.71 C 506.804 1373.81 498.564 1368.57 507.038 1358.89 z"/>
<path transform="translate(0,0)" fill="#D5C09D" d="M 662.304 1498.49 C 673.973 1499.83 706.777 1527.97 710.305 1528.4 C 735.194 1531.45 727.151 1536.08 745.025 1545.72 C 749.681 1545.7 759.741 1545.34 763.685 1546.23 C 771.852 1548.07 780.691 1559.75 788.292 1562.48 C 800.995 1567.05 813.172 1566.89 825.788 1573.18 C 840.88 1580.71 835.895 1592.16 840.922 1605.99 C 843.06 1612.31 848.131 1617.96 850.801 1623.91 C 857.379 1638.57 865.22 1652.3 872.49 1666.58 C 879.268 1679.9 882.808 1695.93 890.738 1708.63 C 893.506 1713.06 905.081 1720.18 909.132 1724.44 C 928.112 1740.56 945.57 1757.49 962.704 1775.49 C 964.765 1777.66 966.716 1778.68 969.373 1779.95 C 981.708 1785.84 995.421 1787.37 1007.8 1793.03 C 1022.54 1799.35 1035.6 1809.41 1050.83 1814.57 C 1058.73 1817.41 1067.04 1818.33 1075.17 1820.05 C 1083.66 1821.85 1095.85 1820.87 1100.04 1829.69 C 1096.93 1833.05 1098.47 1832.07 1092.82 1832.53 C 1075.6 1830.23 1066.63 1836.46 1050.99 1836.75 C 1028.99 1837.15 1004.73 1834.34 982.543 1833.89 C 967.741 1833.6 949.872 1818.56 935.035 1814.62 C 919.922 1810.61 903.923 1813.88 890.46 1805.33 C 883.165 1800.66 877.719 1794.15 871.053 1789.03 C 853.71 1775.71 836.639 1760.88 823.245 1743.53 C 820.679 1739.89 817.834 1734.08 814.298 1731.42 C 798.218 1719.34 783.603 1707.09 770.785 1691.4 C 759.139 1677.14 758.569 1657.17 749.262 1641.9 C 743.253 1630.45 725.762 1620.24 719.548 1609.91 C 708.046 1590.79 706.167 1572.21 687.659 1556.17 C 684.104 1553.09 677.463 1540.74 674.396 1536.21 C 669.643 1529.19 663.382 1520.08 660.97 1511.9 C 659.384 1506.27 659.554 1503.35 662.304 1498.49 z"/>
<path transform="translate(0,0)" fill="#D5C09D" d="M 343.837 1107.61 C 350.298 1108.2 351.887 1109.21 356.378 1114.05 C 362.584 1120.75 364.075 1131.31 368.495 1138.46 C 373.112 1145.92 384.648 1155.49 386.564 1164.66 C 389.371 1170.86 380.189 1195.4 381.649 1199.03 C 389.351 1218.17 382.298 1222.9 380.409 1241.1 C 379.54 1249.48 389.559 1264.68 390.43 1273.9 C 391.806 1288.48 387.142 1301.84 387.749 1316.3 C 388.304 1327.25 394.965 1335.32 395.755 1345.87 C 396.554 1356.52 391.89 1369.19 394.149 1379.8 C 395.712 1387.15 403.719 1395.56 404.618 1403.03 C 405.933 1413.95 403.317 1425.62 403.954 1436.75 C 404.573 1447.57 410.869 1456.88 412.882 1467.38 C 414.578 1476.22 413.135 1490.68 416.282 1499.14 C 420.033 1509.22 430.998 1521.15 435.998 1530.6 C 442.691 1543.26 447.276 1557.79 453.413 1570.9 C 457.077 1577.56 462.533 1583.32 466.659 1589.68 C 470.386 1595.43 473.662 1601.87 476.607 1608.02 C 479.617 1614.31 484.254 1621.45 483.513 1628.63 C 483.361 1630.09 482.254 1631.76 481.059 1632.55 C 472.758 1638.05 463.493 1627.52 455.223 1626.31 C 447.763 1625.62 443.393 1627.82 435.092 1626.05 C 416.614 1618.33 416.683 1601.4 403.418 1588.04 C 398.297 1582.88 389.169 1578.87 383.298 1574.24 C 376.517 1568.89 363.405 1556.8 359.067 1549.24 C 357.741 1546.93 358.221 1543.22 359.192 1540.78 C 366.096 1533.33 377.793 1540.67 384.106 1533.71 C 390.12 1516.51 338.515 1475.25 333.678 1456.03 C 329.934 1441.16 334.099 1433.37 331.823 1420.01 C 330.087 1409.82 319.308 1401.14 317.293 1389.08 C 314.617 1373.05 323.977 1362.73 324.596 1348.97 C 325.151 1336.65 312.971 1321.01 313.742 1307.36 C 313.879 1297.76 320.677 1289.24 321.77 1279.88 C 324.306 1258.15 313.29 1237.38 324.105 1216.49 C 329.46 1207.76 336.699 1186.69 331.738 1176.32 C 322.026 1156.02 331.063 1145.04 338.143 1125.5 C 340.652 1118.57 337.344 1115.33 343.837 1107.61 z"/>
<path transform="translate(0,0)" fill="#D5C09D" d="M 403.75 1264.49 C 404.428 1264.53 406.593 1264.72 407.199 1264.81 C 416.251 1266.26 438.18 1299.21 441.909 1306.44 C 444.545 1311.55 443.915 1326.53 449.333 1335.52 C 459.788 1352.88 473.937 1368.31 482.447 1386.2 C 486.394 1394.5 484.128 1409.78 488.916 1418.32 C 495.186 1429.5 503.337 1433.74 509.265 1445.65 C 514.405 1455.98 512.844 1478.2 516.564 1485.9 C 523.8 1500.87 537.338 1515.11 544.959 1531.39 C 554.142 1551.01 549.911 1566.22 564.95 1582.97 C 571.046 1589.92 573.3 1599.45 577.661 1607.32 C 588.806 1627.43 598.324 1648.71 609.396 1668.75 C 612.351 1674.1 625.238 1683.18 629.658 1688.55 C 643.841 1705.8 665.92 1726.36 677.54 1745.23 C 677.596 1748.64 678.148 1747.24 676.116 1749.67 L 672.896 1749.92 C 645.481 1741.97 648.884 1737.03 625.485 1722.85 C 620.554 1719.86 605.994 1716.89 599.407 1714.7 C 580.046 1708.29 577.265 1695.48 564.788 1683.92 C 557.401 1677.08 545.094 1673.51 536.28 1664.31 C 526.514 1654.11 523.935 1647.26 516.392 1635.83 C 510.608 1628.02 499.764 1624.22 494.534 1615.99 C 488.735 1606.85 486.727 1595.28 481.923 1585.65 C 477.628 1577.04 470.056 1569.73 465.515 1561.39 C 461.431 1553.89 461.074 1543.53 457.108 1535.87 C 450.392 1520.95 440.396 1507.82 433.353 1493.57 C 435.122 1470.67 434.095 1449.5 426.333 1427.87 C 425.402 1422.66 417.328 1403.73 417.548 1400.33 C 419.001 1377.84 415.072 1367.79 406.637 1347.6 C 402.955 1338.79 407.801 1318.06 406.424 1306.76 C 404.585 1291.67 395.894 1278.1 403.75 1264.49 z"/>
<path transform="translate(0,0)" fill="#D5C09D" d="M 400.983 819.194 C 406.17 818.683 408.569 818.576 411.467 823.036 C 412.228 832.397 405.962 833.832 402.4 841.159 C 399.911 846.279 398.159 856.831 395.117 861.632 C 390.463 868.974 382.551 875.115 379.01 883.344 C 374.855 893.004 374.54 904.959 369.632 914.326 C 365.745 921.745 356.292 928.792 353.001 936.525 C 349.762 944.134 350.592 955.375 347.859 963.315 C 346.872 966.181 342.784 972.234 340.973 975.025 C 334.74 984.63 339.079 995.303 336.967 1006.11 C 335.533 1013.45 327.691 1021.6 328.397 1028.89 C 329.583 1041.14 335.328 1043.82 333.279 1057.27 C 331.804 1066.94 328.273 1079.36 327.026 1088.49 C 325.991 1096.06 329.607 1101.51 326.924 1112.44 C 324.402 1122.72 313.88 1141.26 313.772 1150 C 313.625 1161.95 315.509 1173.51 314.653 1186.82 C 313.581 1203.48 306.704 1223.52 306.21 1239.07 C 305.899 1248.85 312.419 1264.06 310.891 1276.84 C 310.212 1289.79 297.874 1300.08 298.139 1313.38 C 298.362 1324.6 306.73 1333.81 309.138 1344.92 C 303.072 1373.89 287.793 1361.46 278.889 1342.62 C 276.766 1336.33 273.002 1324.23 269.639 1319.26 C 261.385 1307.08 245.526 1296.54 241.983 1281.47 C 238.379 1266.15 251.783 1252.99 253.725 1238.49 C 254.759 1230.77 251.261 1220.55 251.106 1212.89 C 250.938 1204.53 254.682 1196.9 252.679 1188.03 C 250.928 1180.28 246.736 1172.1 244.9 1164.66 C 239.992 1144.75 254.533 1128.53 257.981 1111.77 C 260.505 1099.5 250.442 1079.35 252.971 1063.97 C 255.635 1047.78 265.138 1043.81 270.314 1029.11 C 275.445 1014.55 270.293 998.273 273.808 984.141 C 276.001 975.326 287.348 965.339 291.548 956.634 C 296.466 946.439 292.729 935.195 297.155 925.122 C 302.011 914.072 318.418 905.469 325.376 897.149 C 330.684 890.802 333.952 873.856 339.731 865.447 C 343.832 855.562 361.408 849.583 366.736 843.317 C 380.663 826.937 378.409 824.669 400.983 819.194 z"/>
</svg>